<svg xmlns="http://www.w3.org/2000/svg" version="1.1" xmlns:xlink="http://www.w3.org/1999/xlink" xmlns:svgjs="http://svgjs.dev/svgjs" width="2000" height="1500" viewBox="0 0 2000 1500"><rect width="2000" height="1500" fill="#000000"></rect><g transform="matrix(0.4444444444444444,0,0,0.4444444444444444,555.5555555555557,250)"><svg viewBox="0 0 320 360" data-background-color="#61777f" preserveAspectRatio="xMidYMid meet" height="2250" width="2000" xmlns="http://www.w3.org/2000/svg" xmlns:xlink="http://www.w3.org/1999/xlink"><g id="tight-bounds" transform="matrix(1,0,0,1,0,0)"><svg viewBox="0 0 320 360" height="360" width="320"><g><svg></svg></g><g><svg viewBox="0 0 320 360" height="360" width="320"><g><path xmlns="http://www.w3.org/2000/svg" d="M165.217 303.356c-1.404-1.755-2.809-0.702-2.808-1.755-8.426 2.106-24.223-3.511-30.894-2.809 1.404-2.106-2.106-1.755-2.106-3.159-1.404 2.106-2.809 0-4.915 0.702-2.106-5.266-10.532-1.404-11.585-8.075-4.915 0-6.67-2.809-11.586-5.617 0.351-0.351 0.702-0.351 1.054-0.702-2.457-0.351-2.457-1.755-4.564-1.755l0.702-1.405c-3.862-0.702-5.266-6.67-10.883-8.776-1.755-0.351-5.617-6.319-7.723-7.724-1.053-0.702-2.809-0.702-0.352-1.053-0.351-0.351-0.351-1.053 0-1.404-2.457-0.702-2.809-2.809-5.968-3.862-0.351-1.053 0.702-1.755 0-2.457-0.702-0.351-1.755 0.351-2.457 0-0.351 6.319 6.67 7.021 8.777 12.287-0.702-0.702-1.755-2.809-2.458-1.404-0.351 1.053 2.809 4.915 2.809 2.808-1.053 0.702-1.404-1.053-0.703-1.404 1.053 1.755 3.16 1.404 3.16 2.809-1.053 1.053-2.457-1.053-2.106 0.702 3.16 1.755 2.809 3.511 4.563 5.968-1.404-1.755-1.755 1.404-3.159 0-0.351-5.266-6.319-4.213-6.319-9.479-0.702-1.755-1.404-0.351-2.458-1.053 1.404-1.404-4.213-6.319-4.213-4.564-1.755-2.106-0.702-2.809-1.053-4.213-1.404-0.351-0.351 1.404-1.404 0.351 1.404-2.457-1.755-5.617-3.862-8.074l1.405-0.702c-2.457-1.404-2.809-4.213-4.564-7.373-2.106 3.16 4.213 10.181 3.159 11.585 0 0.351 2.457 3.16 3.16 4.564 2.809 4.915 4.915 10.883 8.777 13.692-0.702-0.351-0.351-2.457 0.702-1.404 0 1.053-0.702 2.106-0.702 3.159 2.106 2.106 3.862 3.862 5.968 5.968-4.564-2.809-9.128-5.617-12.288-9.83 1.755-0.351 3.511 2.809 4.915 2.458-3.511-2.809-2.457-3.862-3.861-7.372-1.404-1.053 0.351 1.404-1.054 1.755-4.564-4.213-8.075-6.67-10.181-10.532 0.351-0.351 0.702-0.702 0.703-1.404-0.351-0.351-0.351-0.351-0.703-0.702 2.106 2.106 2.809 3.862 5.266 4.212-1.053-1.053 0-1.404-1.404-2.457-0.702-1.404-1.755 0.702-2.457-0.351 0.702-1.053 0-2.457 0-3.511-0.702 0-1.404 0-1.756-1.053-0.702-0.351-1.053 0-1.404 0.702-0.351-0.351-0.351-1.053-0.702-1.404v-0.351c-0.351-0.351-0.702-1.053-1.053-1.405-2.809-7.372-4.564-17.202-8.426-23.521 1.053-4.213-0.702-12.638-1.755-14.745 1.053-1.755 0.351-9.83-0.351-11.234-1.755 0.702 0.351 4.564-1.404 5.617-1.755-7.723 1.053-16.5 0.351-23.521 0.702 0 1.404 0 1.404-0.351-1.053-1.053 0.702-3.16 0.351-5.617 1.404-3.16-3.16 4.564-3.16 7.723-0.351 0.702-1.755 0-1.404 1.756 0 2.457 0.702 7.372-0.702 10.883-0.702 0-0.702-0.702-1.404-0.351-0.351 1.755-0.702 3.862-1.053 5.617-0.351-0.702-0.702-1.755-0.703-2.107-1.755-8.777 0-18.958-0.702-26.33 1.404 0 1.404-2.106 2.458-2.808-0.351 2.809-1.053 6.319 0.702 7.021 1.404-13.692 4.213-28.787 10.532-43.532 4.564-10.883 11.234-21.766 19.308-30.543 0.702 1.053-0.351 3.511 0 4.564 7.021-7.372 11.585-16.149 19.309-21.064 0.351 1.755-3.16 3.16-3.16 4.564 3.16-3.16 4.213-2.106 7.724-3.159 1.053-1.404-1.404 0-1.756-1.405 2.106-1.404 3.511-3.16 4.915-4.212 0 0.351-0.351 0.351-0.351 0.702 3.862-1.053 4.213-3.16 7.022-3.862-0.351-0.351-1.053-0.702-2.107-0.351 0.702-0.351 1.755-1.053 2.809-1.404-0.351 0-0.351 0.351-0.702 0.351 2.106-1.053 0.351 0.351 0.351 1.053 0.351 0 0.702-0.351 0.702-0.351-2.106 1.404-3.511 2.106-4.213 4.564 1.053-0.702 1.404 0 2.809-1.054 1.404-0.702-0.351-1.755 0.702-2.457 1.053 0.702 2.457 0.351 3.51 0.351 0-0.702 0.351-1.404 1.054-1.755 0.351-0.702 0-1.053-0.352-1.053 0.351-0.351 0.702-0.351 1.405-0.703 0 0 0.351 0 0.351 0.351 5.968-2.809 12.638-5.266 18.957-7.372 3.862-0.351 8.777-0.351 10.883-2.808-0.702 0-1.404 0.351-1.755 0 0.351 0 1.053-0.351 1.404-0.351 0.702 0.702 1.755 0 0.702 1.404 0.351 0 0.351 0 0.703-0.351 0 0.351 0 0.351 0.351 0.702 0.351 0 0.702-0.351 1.053-1.053 0.351 0 0.702 0 1.053-0.351l-0.351 0.351c2.809-0.702 5.266-0.351 9.128-1.054 0-0.351 0-0.702 0-1.053 0.702 0 1.053-0.351 1.755-0.351v0.351c1.404-0.702 2.809 0.702 2.808 0 0.351 0 0.351 0 0.703 0 0 0.702-0.351 1.053-0.351 1.405 1.755 0 2.809 0 3.51-1.054-0.351-0.351-0.702-0.351-1.053-0.351 0.702 0 1.404-0.351 2.106-0.702 1.053 0.351 1.404 0.702 1.405 2.107 1.755-3.16 7.372 0.702 9.829 0 1.053 0 0.702-1.404 1.405-2.107 0.351 0 0.702 0 1.053 0 1.755 1.404 4.213 2.809 7.372 3.16-2.809-0.702 0.351-1.053 0.702-1.405-0.702 0-0.702-0.351-0.702-0.702 1.053 0 2.106 0.351 3.16 0.351 0 0.702 0.351 1.053 1.053 1.054 0.702 0 0.702-0.351 0.702-1.054 1.053 0 1.755 0 2.809 0.351-0.351 1.404 1.755 1.755 2.457 2.809-2.809-0.702-5.968-1.755-7.021 0 11.234 2.457 23.521 5.968 35.457 11.936 0 0 0 0 0 0.351h0.352c2.106 1.053 4.213 2.106 6.319 3.16 1.404 0.702 2.457 1.404 3.861 2.457 0 0.351 0 0.702 0.703 0.702h0.351c1.404 1.053 2.809 1.755 4.212 2.809 1.404 2.106 2.809 4.915 5.266 4.213 5.266 8.075 10.883 11.234 15.447 19.659 0.351-1.404 1.404 3.16 3.16 3.511-2.809-0.351 1.755 1.755-1.053 1.404 2.457 2.457 3.16 3.511 3.51 6.319-0.702-1.404-1.053-1.755-1.404-0.351-0.351 2.106 2.457-0.351 3.511 1.756-2.106 0-1.404 1.404-1.054 3.159 1.053-1.053 0.702-2.106 1.756-1.755 1.404 1.404-0.702 1.755-0.351 2.809 1.053-1.404 1.404-0.702 2.808 0-1.755 0.351 1.053 2.809-1.053 1.755 1.404 1.755 1.755 2.809 1.053 4.564-1.404-2.106-0.351-3.511-2.457-3.16 4.213 3.511 2.106 11.585 7.021 12.287-3.16 0.702 0 2.106-1.755 2.458 2.106 0.702 1.053 3.511 3.51 4.213-0.351 1.755-1.053 2.809-1.404 4.563 1.053 1.404 1.404 4.213 3.16 4.564-1.053 1.053-0.351 3.862-1.404 4.915 1.404-0.702 2.106-0.702 3.159 0.702-1.755 1.404-0.351 2.809-1.404 3.16 3.16 8.075-0.702 24.575 1.053 30.894-2.106-1.053-1.404 2.457-2.808 2.457 2.457 1.053 0.351 2.809 1.404 4.564-4.915 2.809 0 10.532-6.67 12.287 0.702 4.915-2.106 7.021-4.213 12.288-0.351-0.351-0.351-0.702-0.702-1.054-0.351 2.457-1.755 2.809-1.054 4.915l-1.404-0.702c0 3.862-5.968 5.968-7.372 11.936-0.351 1.755-5.617 6.319-7.022 8.777-0.702 1.053-0.351 2.809-1.053 0.351-0.351 0.351-1.053 0.351-1.404 0.351-0.351 2.457-2.457 3.16-3.16 6.319-0.702 0.351-1.755-0.702-2.457 0.351 0 0.702 0.702 1.755 0.351 2.458 6.319-0.351 6.319-7.723 11.234-10.181-0.351 1.053-2.457 2.106-1.053 2.808 1.053 0 4.213-3.511 2.457-3.159 1.053 0.702-1.053 1.404-1.404 1.053 1.755-1.404 1.053-3.16 2.458-3.511 1.053 0.702-1.053 2.457 1.053 2.107 1.404-3.16 3.16-3.511 5.266-5.266-1.404 1.404 1.755 1.755 0.351 3.159-5.266 1.053-3.511 7.021-8.777 7.724-1.404 1.053-0.351 1.404-0.702 2.457-1.755-1.053-5.617 4.915-4.213 4.564-1.755 1.755-2.809 1.053-4.212 1.404-0.351 1.404 1.404 0.351 0.702 1.405-2.457-1.053-5.617 2.457-7.724 4.915l-1.053-1.054c-1.053 2.809-3.862 3.16-7.021 5.266 3.511 1.755 9.479-5.617 11.234-4.564 0.351 0 3.16-2.809 4.213-3.861 4.564-3.511 10.181-6.319 12.287-10.181-0.351 0.702-2.457 0.702-1.404-0.351 1.053-0.351 2.106 0.351 3.159 0.351 5.617-7.723 12.638-14.043 17.905-23.17 0.351-0.351 0.702-1.053 1.053-1.756-0.702 2.106-1.755 3.862-2.458 5.968-5.617 3.862-7.723 15.096-14.393 16.851 0.351 3.862-3.16 4.915-4.915 9.479-1.053 1.404-1.755-1.053-2.809 0.702 1.053 4.915-8.777 4.564-8.425 9.128-0.702 0.351-1.755 0.702-2.458 1.404h-0.351c-0.351 0.351-0.351 0.351-0.702 0.702-1.755 1.053-3.16 2.106-4.564 3.16-4.915 2.809-11.585 4.915-16.851 7.723v-0.351c-1.404 0.702-3.16 0.351-2.809 1.756-1.053 0.702-2.106 1.404-3.159 2.106-0.351 0-0.351 0-0.702 0 0 0-0.351-0.351-0.702-0.351-0.702 0-0.702 0-1.054 0.351-4.564 0.351-10.532 2.457-12.287 3.862-1.755-1.053-9.83 0.702-11.234 1.404 0.702 1.053 2.809 0 4.564 0-1.053 0.351-2.106 0.702-2.458 1.404-0.351 0-0.351 0-0.702 0-0.351-1.053-1.404 0-1.755-0.351h0.351c-0.351-1.404-1.404-2.106-3.16-1.755 0 0.702 0 1.053-0.351 1.755 0.702 0 2.809-1.053 2.809 0-0.351 0-0.351 0.351 0 0.351-0.702 0.702-1.755 0.702-2.458 1.054-1.404 0-3.16 0-4.563 0-0.351-0.351-0.702-0.351-1.405-0.703-0.351 0.351-1.053 0.351-1.404 0.703-2.106 0-4.564 0.351-6.319 0.702 0-0.702 0-1.404-0.702-1.405-1.053 1.404-3.16-0.351-5.617 0.352-2.457-0.702 1.404 1.053 4.915 1.755-0.351 0.351-0.702 0.702-1.756 1.053M116.068 308.271c-4.915-4.564-15.096-6.67-16.851-10.181-2.809-0.351-7.021-5.617-10.532-6.319 1.755 0 0.351-1.053 0-1.755-0.702 0.702-1.404 1.053-2.106 1.053 0-2.809-2.809-4.564-5.266-6.319 1.755 1.053 3.16 1.755 5.266 2.106 0-0.702 0-1.404 0.702-1.404 2.457 2.457 5.266 4.915 8.425 7.372 4.213 3.862 25.979 13.692 29.841 15.447 0 0-0.702 1.404-0.351 1.404 1.755 1.053 3.16-1.053 3.511 1.404-5.617 0.702-7.723-3.16-12.639-2.808M277.909 226.824v0.351 0c-0.351 0 0-0.351 0-0.351M136.079 64.281c-0.351 0.351-0.702 0.351-0.702 0.351 0-0.351 0.351-0.351 0.702-0.351M129.409 66.036c0 0.351 0 0.351 0 0 0 0.351 0 0.351 0 0 0 0.351 0 0 0 0M106.238 73.408v0c0.351-0.351 0.351-0.351 0.703-0.351-0.351 0-0.702 0.351-0.703 0.351M162.409 61.823c-0.702 0-1.053 0-1.404-0.351 0.351 0 0.702 0 1.053 0h0.351c0 0 0 0 0 0.351M168.728 62.525c-0.351-0.351-1.404-0.702-2.457-0.702 0-0.351 0.351-0.702 0.351-0.702 0.351 0 0.702 0 1.053 0 0 0 0.351 0 0.351 0.351 0 0 0 0 0-0.351 0.351 0 0.351 0 0.702 0 0.351 0.702 0.702 1.053 0 1.404M180.313 63.579c-1.755 0.351-2.809-0.351-4.564-1.405 1.053 0 2.457 0.351 3.511 0.702 0.351 0 0.702 0.351 1.053 0.703M305.292 113.43c-0.702 0.351-1.053 0.351-1.755-1.053-5.617-11.936-15.798-29.138-30.543-43.532-14.394-14.745-33.702-26.681-51.255-33.001 1.053 0.351 2.457 1.053 1.755 1.756-15.447-5.968-30.192-9.479-44.234-10.883-37.915-5.968-77.585 2.106-108.128 21.766 0.351 0.702 0.351 1.053-0.702 1.755-11.234 7.021-27.032 19.309-39.671 35.458-12.638 16.149-22.468 36.511-26.681 54.766 0.351-1.053 0.702-2.809 1.405-2.107-9.128 36.16-6.67 67.053 5.968 93.735 0.702-0.702-1.755-4.213 0.351-3.862 1.404 3.862 3.16 8.075 5.266 11.936 2.457 5.617 5.266 12.989 9.128 14.745-9.83-19.309-16.5-41.426-17.203-61.085 1.404 2.809 1.053 8.777 3.16 11.234 0.702-13.34-2.457-31.245 2.106-43.883-1.053 6.67-1.755 15.798-1.053 24.925 0 6.67 3.16 25.277 5.266 27.032-0.351-0.351-0.351-2.106 0-2.106 1.053 2.106-1.404 3.16 0.351 3.511 0-0.702 0.351-0.702 0.702-0.703 3.511 7.723 8.075 19.66 11.585 25.628 4.213 7.723 9.83 14.745 16.149 21.064 0 0.351 0.351 0.351 0.352 0.702 0.702 1.755 3.16 3.862 3.861 5.266 0.351 0.702-0.351 1.755 0 2.458 5.266 9.83 12.989 19.66 22.468 27.383 5.968 7.021 15.447 14.394 27.032 20.713 11.234 5.968 24.223 10.883 36.16 13.691 8.426 2.106 18.606 2.457 24.926 3.862 8.426 1.755 23.17-0.702 30.542-2.107 44.234-6.67 88.117-36.862 110.235-80.393 22.819-43.883 22.117-97.596 2.457-138.671" fill="#ffffff" fill-rule="nonzero" stroke="none" stroke-width="1" stroke-linecap="butt" stroke-linejoin="miter" stroke-miterlimit="10" stroke-dasharray="" stroke-dashoffset="0" font-family="none" font-weight="none" font-size="none" text-anchor="none" style="mix-blend-mode: normal" data-fill-palette-color="tertiary"></path></g><g transform="matrix(1,0,0,1,80,158.17274368558077)"><svg viewBox="0 0 160 43.65451262883849" height="43.65451262883849" width="160"><g><svg viewBox="0 0 230.48522570469902 62.88575122679046" height="43.65451262883849" width="160"><g transform="matrix(1,0,0,1,0,8.691156645670752)"><svg viewBox="0 0 160 45.50343793544896" height="45.50343793544896" width="160"><g id="textblocktransform"><svg viewBox="0 0 160 45.50343793544896" height="45.50343793544896" width="160" id="textblock"><g><svg viewBox="0 0 160 32.19079651429445" height="32.19079651429445" width="160"><g transform="matrix(1,0,0,1,0,0)"><svg width="160" viewBox="4.579999923706055 -33.27000045776367 165.3300018310547 33.27000045776367" height="32.19079651429445" data-palette-color="#ffffff"><path d="M22.22-14.21L8.44-14.21 8.44 0 4.58 0 4.58-33.27 23.1-33.27 23.1-29.83 8.44-29.83 8.44-17.64 22.22-17.64 22.22-14.21ZM37.11-33.27L40.29-33.27 40.29 0 36.63 0 36.63-23.71Q36.63-26.85 36.8-29.3L36.8-29.3Q36.32-28.82 35.69-28.27 35.06-27.73 30.31-23.86L30.31-23.86 28.31-26.47 37.11-33.27ZM58.82-21.16L58.82-21.16 58.82 0 55.25 0 55.25-33.27 61.07-33.27 71.61-5.81 71.78-5.81 82.4-33.27 88.19-33.27 88.19 0 84.32 0 84.32-21.44Q84.32-25.28 84.65-29.45L84.65-29.45 84.45-29.45 73.07 0 69.96 0 58.69-29.47 58.51-29.47Q58.82-25.99 58.82-21.16ZM101.18-3.46L115.84-3.46 115.84 0 97.31 0 97.31-33.27 115.84-33.27 115.84-29.83 101.18-29.83 101.18-19.11 114.96-19.11 114.96-15.7 101.18-15.7 101.18-3.46ZM127.09-3.46L141.75-3.46 141.75 0 123.22 0 123.22-33.27 141.75-33.27 141.75-29.83 127.09-29.83 127.09-19.11 140.86-19.11 140.86-15.7 127.09-15.7 127.09-3.46ZM169.91-29.83L159.37-29.83 159.37 0 155.5 0 155.5-29.83 144.96-29.83 144.96-33.27 169.91-33.27 169.91-29.83Z" opacity="1" transform="matrix(1,0,0,1,0,0)" fill="#ffffff" class="undefined-text-0" data-fill-palette-color="primary" id="text-0"></path></svg></g></svg></g><g transform="matrix(1,0,0,1,66.06400000000001,39.79027099220303)"><svg viewBox="0 0 93.93599999999999 5.713166943245933" height="5.713166943245933" width="93.93599999999999"><g transform="matrix(1,0,0,1,0,0)"><svg width="93.93599999999999" viewBox="3.0999999046325684 -36.099998474121094 602.530029296875 36.64999771118164" height="5.713166943245933" data-palette-color="#ffffff"><path d="M24.95-3.25L25.1-0.55Q19.95 0.5 16.3 0.5 12.65 0.5 10.43-0.28 8.2-1.05 6.8-2.45 5.4-3.85 4.6-6.1L4.6-6.1Q3.1-10.2 3.1-17.25L3.1-17.25Q3.1-28.55 6.7-32.2L6.7-32.2Q9.65-35.25 15.7-35.25L15.7-35.25Q19.85-35.25 25.1-34.2L25.1-34.2 24.95-31.5Q19.75-32.45 16.6-32.45 13.45-32.45 11.73-31.78 10-31.1 8.93-29.98 7.85-28.85 7.3-26.85L7.3-26.85Q6.3-23.45 6.3-18.35 6.3-13.25 6.65-10.73 7-8.2 8-6.15 9-4.1 10.95-3.2 12.9-2.3 16.35-2.3 19.8-2.3 24.95-3.25L24.95-3.25ZM34.2 0L31.25 0 31.25-36.1 34.2-36.1 34.2 0ZM40.95-12.55Q40.95-19.6 43.32-22.55 45.7-25.5 51.42-25.5 57.15-25.5 59.52-22.55 61.9-19.6 61.9-12.55 61.9-5.5 59.72-2.5 57.55 0.5 51.45 0.5 45.35 0.5 43.15-2.5 40.95-5.5 40.95-12.55ZM44.05-12.63Q44.05-6.7 45.42-4.42 46.8-2.15 51.42-2.15 56.05-2.15 57.45-4.45 58.85-6.75 58.85-12.63 58.85-18.5 57.27-20.68 55.7-22.85 51.45-22.85 47.2-22.85 45.62-20.7 44.05-18.55 44.05-12.63ZM75.89-22.75L75.89-22.75Q69.99-22.75 69.99-18.5L69.99-18.5Q69.99-16.55 71.29-15.75 72.59-14.95 77.17-14.18 81.74-13.4 83.62-12.05 85.49-10.7 85.49-6.88 85.49-3.05 83.04-1.28 80.59 0.5 75.84 0.5L75.84 0.5Q73.09 0.5 68.74-0.2L68.74-0.2 67.29-0.4 67.49-3.05Q73.09-2.2 76.09-2.2 79.09-2.2 80.77-3.25 82.44-4.3 82.44-6.8 82.44-9.3 81.07-10.13 79.69-10.95 75.17-11.65 70.64-12.35 68.79-13.65 66.94-14.95 66.94-18.55 66.94-22.15 69.49-23.8 72.04-25.45 75.79-25.45L75.79-25.45Q78.79-25.45 83.29-24.8L83.29-24.8 84.64-24.6 84.54-21.95Q79.19-22.75 75.89-22.75ZM108.09-2.5L108.09-2.5 109.59-2.65 109.69-0.2Q104.04 0.5 100.14 0.5L100.14 0.5Q94.74 0.45 92.59-2.7 90.44-5.85 90.44-12.4L90.44-12.4Q90.44-25.5 100.74-25.5L100.74-25.5Q105.69-25.5 108.14-22.68 110.59-19.85 110.59-13.65L110.59-13.65 110.49-11.25 93.49-11.25Q93.49-6.65 95.07-4.42 96.64-2.2 100.47-2.2 104.29-2.2 108.09-2.5ZM93.49-13.75L93.49-13.75 107.59-13.75Q107.59-18.7 105.97-20.8 104.34-22.9 100.77-22.9 97.19-22.9 95.34-20.73 93.49-18.55 93.49-13.75ZM140.39-25L140.39-22.35 132.04-22.35 132.04-10Q132.04-5.15 132.74-3.65 133.44-2.15 136.04-2.15L136.04-2.15 140.64-2.5 140.84 0.05Q137.54 0.55 135.79 0.55L135.79 0.55Q131.99 0.55 130.51-1.33 129.04-3.2 129.04-8.5L129.04-8.5 129.04-22.35 125.34-22.35 125.34-25 129.04-25 129.04-32.85 132.04-32.85 132.04-25 140.39-25ZM144.03-12.55Q144.03-19.6 146.41-22.55 148.78-25.5 154.51-25.5 160.23-25.5 162.61-22.55 164.98-19.6 164.98-12.55 164.98-5.5 162.81-2.5 160.63 0.5 154.53 0.5 148.43 0.5 146.23-2.5 144.03-5.5 144.03-12.55ZM147.13-12.63Q147.13-6.7 148.51-4.42 149.88-2.15 154.51-2.15 159.13-2.15 160.53-4.45 161.93-6.75 161.93-12.63 161.93-18.5 160.36-20.68 158.78-22.85 154.53-22.85 150.28-22.85 148.71-20.7 147.13-18.55 147.13-12.63ZM198.98-2.5L198.98-2.5 200.48-2.65 200.58-0.2Q194.93 0.5 191.03 0.5L191.03 0.5Q185.63 0.45 183.48-2.7 181.33-5.85 181.33-12.4L181.33-12.4Q181.33-25.5 191.63-25.5L191.63-25.5Q196.58-25.5 199.03-22.68 201.48-19.85 201.48-13.65L201.48-13.65 201.38-11.25 184.38-11.25Q184.38-6.65 185.95-4.42 187.53-2.2 191.35-2.2 195.18-2.2 198.98-2.5ZM184.38-13.75L184.38-13.75 198.48-13.75Q198.48-18.7 196.85-20.8 195.23-22.9 191.65-22.9 188.08-22.9 186.23-20.73 184.38-18.55 184.38-13.75ZM224.82-17.55L224.82-17.55 224.82-4.15Q225.03-2.3 228.07-1.95L228.07-1.95 227.93 0.45Q224.07 0.45 222.28-1.55L222.28-1.55Q217.57 0.5 212.88 0.5L212.88 0.5Q209.53 0.5 207.78-1.43 206.03-3.35 206.03-6.93 206.03-10.5 207.8-12.23 209.57-13.95 213.38-14.35L213.38-14.35 221.88-15.2 221.88-17.55Q221.88-20.35 220.65-21.58 219.43-22.8 217.38-22.8L217.38-22.8Q214.18-22.8 209.07-22.2L209.07-22.2 207.53-22.05 207.38-24.45Q212.88-25.5 217-25.5 221.13-25.5 222.97-23.55 224.82-21.6 224.82-17.55ZM209.13-7.1L209.13-7.1Q209.13-2.05 213.28-2.05L213.28-2.05Q215.07-2.05 217.22-2.48 219.38-2.9 220.63-3.35L220.63-3.35 221.88-3.8 221.88-12.85 213.72-12Q211.28-11.8 210.2-10.6 209.13-9.4 209.13-7.1ZM241.87-25.5L241.87-25.5Q244.12-25.5 247.22-25L247.22-25 248.37-24.85 248.22-22.3Q244.27-22.8 242.37-22.8L242.37-22.8Q237.92-22.8 236.27-20.63 234.62-18.45 234.62-12.63 234.62-6.8 236.12-4.5 237.62-2.2 242.37-2.2L242.37-2.2 248.32-2.65 248.42-0.1Q243.97 0.5 241.82 0.5L241.82 0.5Q235.87 0.5 233.7-2.45 231.52-5.4 231.52-12.6 231.52-19.8 233.9-22.65 236.27-25.5 241.87-25.5ZM257.17-21.1L257.17 0 254.22 0 254.22-36.1 257.17-36.1 257.17-23.55Q261.37-25.5 265.27-25.5L265.27-25.5Q270.27-25.5 271.94-22.85 273.62-20.2 273.62-13.15L273.62-13.15 273.62 0 270.62 0 270.62-13Q270.62-18.75 269.55-20.78 268.47-22.8 264.87-22.8L264.87-22.8Q263.12-22.8 261.19-22.38 259.27-21.95 258.22-21.5L258.22-21.5 257.17-21.1ZM290.81-12.55Q290.81-19.6 293.19-22.55 295.56-25.5 301.29-25.5 307.01-25.5 309.39-22.55 311.76-19.6 311.76-12.55 311.76-5.5 309.59-2.5 307.42 0.5 301.31 0.5 295.22 0.5 293.01-2.5 290.81-5.5 290.81-12.55ZM293.92-12.63Q293.92-6.7 295.29-4.42 296.67-2.15 301.29-2.15 305.92-2.15 307.31-4.45 308.72-6.75 308.72-12.63 308.72-18.5 307.14-20.68 305.56-22.85 301.31-22.85 297.06-22.85 295.49-20.7 293.92-18.55 293.92-12.63ZM330.61-25L330.61-22.35 322.26-22.35 322.26-10Q322.26-5.15 322.96-3.65 323.66-2.15 326.26-2.15L326.26-2.15 330.86-2.5 331.06 0.05Q327.76 0.55 326.01 0.55L326.01 0.55Q322.21 0.55 320.74-1.33 319.26-3.2 319.26-8.5L319.26-8.5 319.26-22.35 315.56-22.35 315.56-25 319.26-25 319.26-32.85 322.26-32.85 322.26-25 330.61-25ZM338.26-21.1L338.26 0 335.31 0 335.31-36.1 338.26-36.1 338.26-23.55Q342.46-25.5 346.36-25.5L346.36-25.5Q351.36-25.5 353.04-22.85 354.71-20.2 354.71-13.15L354.71-13.15 354.71 0 351.71 0 351.71-13Q351.71-18.75 350.64-20.78 349.56-22.8 345.96-22.8L345.96-22.8Q344.21-22.8 342.29-22.38 340.36-21.95 339.31-21.5L339.31-21.5 338.26-21.1ZM378.51-2.5L378.51-2.5 380.01-2.65 380.11-0.2Q374.46 0.5 370.56 0.5L370.56 0.5Q365.16 0.45 363.01-2.7 360.86-5.85 360.86-12.4L360.86-12.4Q360.86-25.5 371.16-25.5L371.16-25.5Q376.11-25.5 378.56-22.68 381.01-19.85 381.01-13.65L381.01-13.65 380.91-11.25 363.91-11.25Q363.91-6.65 365.48-4.42 367.06-2.2 370.88-2.2 374.71-2.2 378.51-2.5ZM363.91-13.75L363.91-13.75 378.01-13.75Q378.01-18.7 376.38-20.8 374.76-22.9 371.18-22.9 367.61-22.9 365.76-20.73 363.91-18.55 363.91-13.75ZM390.11 0L387.16 0 387.16-25 390.11-25 390.11-21.4Q391.96-22.7 394.63-23.9 397.31-25.1 399.56-25.5L399.56-25.5 399.56-22.5Q397.41-22.05 395.06-21.13 392.71-20.2 391.41-19.5L391.41-19.5 390.11-18.75 390.11 0ZM432.3-17.55L432.3-17.55 432.3-4.15Q432.5-2.3 435.55-1.95L435.55-1.95 435.4 0.45Q431.55 0.45 429.75-1.55L429.75-1.55Q425.05 0.5 420.35 0.5L420.35 0.5Q417 0.5 415.25-1.43 413.5-3.35 413.5-6.93 413.5-10.5 415.28-12.23 417.05-13.95 420.85-14.35L420.85-14.35 429.35-15.2 429.35-17.55Q429.35-20.35 428.13-21.58 426.9-22.8 424.85-22.8L424.85-22.8Q421.65-22.8 416.55-22.2L416.55-22.2 415-22.05 414.85-24.45Q420.35-25.5 424.48-25.5 428.6-25.5 430.45-23.55 432.3-21.6 432.3-17.55ZM416.6-7.1L416.6-7.1Q416.6-2.05 420.75-2.05L420.75-2.05Q422.55-2.05 424.7-2.48 426.85-2.9 428.1-3.35L428.1-3.35 429.35-3.8 429.35-12.85 421.2-12Q418.75-11.8 417.68-10.6 416.6-9.4 416.6-7.1ZM447.6-22.75L447.6-22.75Q441.7-22.75 441.7-18.5L441.7-18.5Q441.7-16.55 443-15.75 444.3-14.95 448.87-14.18 453.45-13.4 455.32-12.05 457.2-10.7 457.2-6.88 457.2-3.05 454.75-1.28 452.3 0.5 447.55 0.5L447.55 0.5Q444.8 0.5 440.45-0.2L440.45-0.2 439-0.4 439.2-3.05Q444.8-2.2 447.8-2.2 450.8-2.2 452.47-3.25 454.15-4.3 454.15-6.8 454.15-9.3 452.77-10.13 451.4-10.95 446.87-11.65 442.35-12.35 440.5-13.65 438.65-14.95 438.65-18.55 438.65-22.15 441.2-23.8 443.75-25.45 447.5-25.45L447.5-25.45Q450.5-25.45 455-24.8L455-24.8 456.35-24.6 456.25-21.95Q450.9-22.75 447.6-22.75ZM491.44-17.55L491.44-17.55 491.44-4.15Q491.64-2.3 494.69-1.95L494.69-1.95 494.54 0.45Q490.69 0.45 488.89-1.55L488.89-1.55Q484.19 0.5 479.49 0.5L479.49 0.5Q476.14 0.5 474.39-1.43 472.64-3.35 472.64-6.93 472.64-10.5 474.42-12.23 476.19-13.95 479.99-14.35L479.99-14.35 488.49-15.2 488.49-17.55Q488.49-20.35 487.27-21.58 486.04-22.8 483.99-22.8L483.99-22.8Q480.79-22.8 475.69-22.2L475.69-22.2 474.14-22.05 473.99-24.45Q479.49-25.5 483.62-25.5 487.74-25.5 489.59-23.55 491.44-21.6 491.44-17.55ZM475.74-7.1L475.74-7.1Q475.74-2.05 479.89-2.05L479.89-2.05Q481.69-2.05 483.84-2.48 485.99-2.9 487.24-3.35L487.24-3.35 488.49-3.8 488.49-12.85 480.34-12Q477.89-11.8 476.82-10.6 475.74-9.4 475.74-7.1ZM519.49-25.5L519.49-25.5Q521.74-25.5 524.84-25L524.84-25 525.99-24.85 525.84-22.3Q521.89-22.8 519.99-22.8L519.99-22.8Q515.54-22.8 513.89-20.63 512.24-18.45 512.24-12.63 512.24-6.8 513.74-4.5 515.24-2.2 519.99-2.2L519.99-2.2 525.94-2.65 526.04-0.1Q521.59 0.5 519.44 0.5L519.44 0.5Q513.49 0.5 511.31-2.45 509.14-5.4 509.14-12.6 509.14-19.8 511.51-22.65 513.89-25.5 519.49-25.5ZM534.78 0L531.83 0 531.83-25 534.78-25 534.78-21.4Q536.63-22.7 539.31-23.9 541.98-25.1 544.23-25.5L544.23-25.5 544.23-22.5Q542.08-22.05 539.73-21.13 537.38-20.2 536.08-19.5L536.08-19.5 534.78-18.75 534.78 0ZM564.68-2.5L564.68-2.5 566.18-2.65 566.28-0.2Q560.63 0.5 556.73 0.5L556.73 0.5Q551.33 0.45 549.18-2.7 547.03-5.85 547.03-12.4L547.03-12.4Q547.03-25.5 557.33-25.5L557.33-25.5Q562.28-25.5 564.73-22.68 567.18-19.85 567.18-13.65L567.18-13.65 567.08-11.25 550.08-11.25Q550.08-6.65 551.66-4.42 553.23-2.2 557.06-2.2 560.88-2.2 564.68-2.5ZM550.08-13.75L550.08-13.75 564.18-13.75Q564.18-18.7 562.56-20.8 560.93-22.9 557.36-22.9 553.78-22.9 551.93-20.73 550.08-18.55 550.08-13.75ZM577.18 0L570.93-25 573.98-25 579.48-2.6 580.18-2.6 586.68-24.5 589.83-24.5 596.33-2.6 597.08-2.6 602.58-25 605.63-25 599.38 0 594.18 0 588.28-20.6 582.33 0 577.18 0Z" opacity="1" transform="matrix(1,0,0,1,0,0)" fill="#ffffff" class="undefined-text-1" data-fill-palette-color="secondary" id="text-1"></path></svg></g></svg></g></svg></g></svg></g><g transform="matrix(1,0,0,1,167.5994744779086,0)"><svg viewBox="0 0 62.88575122679046 62.88575122679046" height="62.88575122679046" width="62.88575122679046"><g data-palette-color="#ffffff"><rect width="17.188772001989392" height="62.88575122679046" fill="#ffffff" stroke="transparent" data-fill-palette-color="accent" x="0" fill-opacity="1"></rect><rect width="17.188772001989392" height="62.88575122679046" fill="#ffffff" stroke="transparent" data-fill-palette-color="accent" x="20.96191707559682" fill-opacity="0.75"></rect><rect width="17.188772001989392" height="62.88575122679046" fill="#ffffff" stroke="transparent" data-fill-palette-color="accent" x="41.92383415119364" fill-opacity="0.5"></rect></g></svg></g></svg></g></svg></g></svg></g><defs></defs></svg><rect width="320" height="360" fill="none" stroke="none" visibility="hidden"></rect></g></svg></g></svg>